<?xml version="1.0" encoding="UTF-8" standalone="no"?>
<!-- Created with Inkscape (http://www.inkscape.org/) -->

<svg
   width="274.46014"
   height="381.0687"
   viewBox="0 0 72.617576 100.82442"
   version="1.1"
   id="svg1"
   xmlns="http://www.w3.org/2000/svg"
   xmlns:svg="http://www.w3.org/2000/svg">
  <defs
     id="defs1" />
  <g
     id="g61"
     transform="translate(15.657175,-17.668974)"
     style="display:inline;fill:#000000">
    <path
       d="m 36.985868,65.461322 c 0.718925,0.224459 1.496783,0.485968 2.334418,0.78138 2.428241,0.751467 4.612723,1.982657 6.56157,3.649617 1.396387,1.19442 2.508821,2.674442 3.339037,4.406766 l 4.530499,-12.844071 a 2.0990475,2.9812282 50 0 1 -0.0047,0 h -15.34833 z"
       style="fill:#000000;stroke:#ffffff;stroke-width:1.5;stroke-dasharray:none"
       id="path66" />
    <path
       d="m 21.686041,37.598917 -6.2655,17.762839 c 0.516772,-1.170802 1.192637,-2.164525 2.026234,-2.982311 1.029881,-1.010318 2.168845,-1.852565 3.416658,-2.52611 1.315244,-0.673546 2.660729,-1.142876 4.035469,-1.412292 1.374739,-0.269398 2.70238,-0.405247 3.982077,-0.405247 1.953309,0 3.67826,0.167968 5.175983,0.504736 1.565107,0.336782 2.846635,0.909791 3.841345,1.718049 0.994709,0.808254 1.611784,1.919729 1.853898,3.334176 0.308514,1.409301 0.154022,3.18647 -0.465822,5.331273 H 54.6396 a 2.1059948,2.9910952 50 0 1 0.0047,0 c 1.466026,-4.16573 1.901936,-7.694092 1.307918,-10.584905 -0.504046,-2.963598 -1.77097,-5.389068 -3.800068,-7.274996 -2.029098,-1.885929 -4.652168,-3.232061 -7.869536,-4.04032 -3.126317,-0.875605 -6.575234,-1.312803 -10.347081,-1.312803 -3.233006,0 -6.620831,0.437179 -10.162678,1.312803 -0.702397,0.173651 -1.397891,0.364347 -2.086904,0.575108 z"
       style="font-weight:bold;font-size:21.5154px;line-height:36.5;font-family:'Helvetica Neue';-inkscape-font-specification:'Helvetica Neue, Bold';letter-spacing:2.64583px;fill:#000000;stroke:#ffffff;stroke-width:1.5;stroke-dasharray:none"
       id="path62" />
    <path
       d="m 10.635247,18.421362 -22.8122,64.693736 H 3.1762654 L 25.991299,18.419129 Z"
       style="fill:#000000;stroke:#ffffff;stroke-width:1.5;stroke-dasharray:none"
       id="path65" />
    <path
       d="M 14.813892,57.087083 8.0605923,76.237924 c 1.76172,0.681644 3.5899787,1.284777 5.4890047,1.805438 2.365505,0.740906 4.723074,1.412736 7.068762,2.018908 2.345736,0.60618 4.386715,1.315011 6.122325,2.123297 0.560396,0.261093 1.06989,0.541383 1.531204,0.844494 0.778233,0.511373 1.416016,1.084307 1.912173,1.715607 0.120213,0.153553 0.231033,0.310395 0.33481,0.470757 0.852146,1.212352 0.933805,2.79319 0.245121,4.746457 -0.641305,1.818583 -1.645781,3.33514 -3.016295,4.54749 -0.442343,0.37614 -0.905536,0.72794 -1.38075,1.05313 l -4.972139,14.108368 h -0.0024 l -2.843959,8.07153 h 15.35317 c 0,0 5.096803,-14.45944 6.828525,-19.369818 l 0.0024,-0.003 c 0.297243,-0.33857 0.587114,-0.6815 0.868721,-1.03129 2.277365,-2.82888 3.997527,-5.894107 5.161426,-9.194451 1.369339,-3.882998 1.690719,-7.082336 0.9609,-9.597302 -0.02818,-0.102375 -0.06152,-0.202864 -0.09486,-0.303353 -0.568096,-1.970114 -1.433108,-3.639328 -2.594049,-5.003692 -0.386932,-0.454083 -0.807065,-0.874918 -1.259411,-1.261852 -1.811072,-1.549038 -3.811385,-2.660487 -5.99859,-3.33405 -0.604067,-0.213189 -1.176765,-0.407595 -1.71077,-0.582419 C 35.219119,67.785591 34.46009,67.558174 33.78972,67.380297 33.417343,67.281687 33.073846,67.19857 32.755988,67.130481 28.64703,65.985459 25.30898,65.041934 22.741369,64.301032 20.241094,63.56013 18.311547,62.819134 16.956295,62.078233 c -1.287821,-0.740902 -2.046144,-1.548579 -2.276191,-2.424156 -0.181258,-0.688966 -0.137117,-1.544868 0.13336,-2.567376 z"
       style="font-weight:bold;font-size:21.5154px;line-height:36.5;font-family:'Helvetica Neue';-inkscape-font-specification:'Helvetica Neue, Bold';letter-spacing:2.64583px;fill:#000000;stroke:#ffffff;stroke-width:1.5;stroke-dasharray:none"
       id="path63" />
    <path
       d="m 18.662469,110.2834 4.600889,-13.050358 c -0.0047,0.002 -0.0094,0.003 -0.01408,0.004 -1.651979,0.67356 -3.333402,1.14535 -5.044923,1.41475 -1.687715,0.20192 -3.237373,0.30335 -4.651839,0.30335 -2.087937,0 -4.0271587,-0.23714 -5.8141877,-0.70855 -1.76327,-0.53884 -3.205958,-1.312 -4.3314929,-2.3223 -1.034389,-1.07769 -1.6935359,-2.45835 -1.9752839,-4.142205 -0.281747,-1.683867 0.004,-3.738888 0.8590479,-6.163652 H -13.065068 c -1.635027,4.44541 -2.181711,8.286147 -1.637985,11.519157 0.543726,3.233008 1.86282,5.893168 3.955405,7.981158 2.1598758,2.08798 4.924664,3.60204 8.2966178,4.54505 3.41557772,1.0103 7.1108835,1.51666 11.0847905,1.51666 3.5538217,0 6.8953947,-0.2996 10.0267827,-0.89785 z"
       style="font-weight:bold;font-size:21.5154px;line-height:36.5;font-family:'Helvetica Neue';-inkscape-font-specification:'Helvetica Neue, Bold';letter-spacing:2.64583px;fill:#000000;stroke:#ffffff;stroke-width:1.5;stroke-dasharray:none"
       id="path64" />
  </g>
</svg>
