<?xml version="1.0" encoding="UTF-8" standalone="no"?>
<!-- Created with Inkscape (http://www.inkscape.org/) -->

<svg
   width="85mm"
   height="55mm"
   viewBox="0 0 85 55"
   version="1.1"
   id="svg1"
   xml:space="preserve"
   inkscape:version="1.4.2 (ebf0e940, 2025-05-08)"
   sodipodi:docname="business_back.svg"
   xmlns:inkscape="http://www.inkscape.org/namespaces/inkscape"
   xmlns:sodipodi="http://sodipodi.sourceforge.net/DTD/sodipodi-0.dtd"
   xmlns="http://www.w3.org/2000/svg"
   xmlns:svg="http://www.w3.org/2000/svg"><sodipodi:namedview
     id="namedview1"
     pagecolor="#ffffff"
     bordercolor="#000000"
     borderopacity="0.25"
     inkscape:showpageshadow="2"
     inkscape:pageopacity="0.0"
     inkscape:pagecheckerboard="false"
     inkscape:deskcolor="#d1d1d1"
     inkscape:document-units="mm"
     inkscape:zoom="2.505804"
     inkscape:cx="153.6433"
     inkscape:cy="113.93549"
     inkscape:window-width="1920"
     inkscape:window-height="1080"
     inkscape:window-x="518"
     inkscape:window-y="93"
     inkscape:window-maximized="0"
     inkscape:current-layer="layer1"
     inkscape:export-bgcolor="#ffffff00" /><defs
     id="defs1" /><g
     inkscape:label="Vrstva 1"
     inkscape:groupmode="layer"
     id="layer1"
     transform="translate(-3,-3)"><rect
       style="fill:#1a1a1a;stroke-width:1.32292"
       id="rect1"
       width="85"
       height="55"
       x="3"
       y="3"
       rx="5"
       ry="5" /><path
       d="m 49.195379,23.830569 c 0.162645,0.05078 0.338621,0.109941 0.528121,0.176773 0.549347,0.170006 1.043547,0.44854 1.48444,0.825661 0.315907,0.270216 0.567575,0.605045 0.755397,0.996953 l 1.024945,-2.905744 a 0.47487233,0.6744501 50 0 1 -0.0011,0 h -3.47228 z"
       style="display:inline;fill:#ffffff;stroke-width:21.7102"
       id="path66" /><path
       d="m 45.734064,17.527194 -1.417458,4.018527 c 0.116911,-0.264873 0.269813,-0.489685 0.4584,-0.674695 0.232992,-0.228566 0.490662,-0.41911 0.772958,-0.571488 0.29755,-0.152377 0.601943,-0.258555 0.912953,-0.319506 0.311011,-0.06094 0.611366,-0.09168 0.900875,-0.09168 0.441902,0 0.832141,0.038 1.170974,0.114187 0.354078,0.07619 0.644001,0.205824 0.869037,0.388679 0.225035,0.182853 0.364637,0.434304 0.419411,0.754298 0.0698,0.318829 0.03485,0.720882 -0.105384,1.206106 h 3.473394 a 0.47644403,0.67668232 50 0 1 0.0011,0 c 0.331662,-0.942423 0.430279,-1.740652 0.295893,-2.394647 -0.114032,-0.670462 -0.400651,-1.219182 -0.859698,-1.645839 -0.459048,-0.426658 -1.052471,-0.731197 -1.780343,-0.914052 -0.707275,-0.19809 -1.487531,-0.296998 -2.340845,-0.296998 -0.73141,0 -1.497845,0.0989 -2.299125,0.296998 -0.158905,0.03929 -0.316248,0.08243 -0.472126,0.130109 z"
       style="font-weight:bold;font-size:21.5154px;line-height:36.5;font-family:'Helvetica Neue';-inkscape-font-specification:'Helvetica Neue, Bold';letter-spacing:2.64583px;display:inline;fill:#ffffff;stroke-width:19.7541"
       id="path62" /><path
       d="m 43.234018,13.188611 -2.950765,8.368637 c -7.54e-4,0.0021 -0.0011,0.0032 -0.0021,0.0053 l 0.0021,-0.0053 c -0.0021,0.0043 -0.0043,0.0085 -0.0053,0.01211 l -0.332141,0.944239 v 5.45e-4 c -0.01349,0.04908 -0.02635,0.09816 -0.03846,0.146582 0.01147,-0.0478 0.02401,-0.09625 0.03729,-0.144935 l -1.871472,5.308635 h 3.473395 l 0.406239,-1.152848 c -0.01063,-0.0043 -0.01955,-0.0085 -0.03017,-0.01264 a 0.47487233,0.6744501 50 0 1 -0.01094,-0.0043 c -0.536269,-0.245911 -0.991344,-0.561576 -1.357628,-0.946449 -0.0064,-0.0064 -0.01062,-0.0135 -0.01646,-0.01976 0.0064,0.0064 0.01115,0.01295 0.017,0.01922 0.366285,0.384874 0.821359,0.700528 1.357628,0.946437 a 0.47487233,0.6744501 50 0 0 0.01094,0.0043 c 0.0096,0.0043 0.01923,0.0085 0.02964,0.01264 h 5.45e-4 l 0.214104,-0.608277 c -0.438204,-0.2176 -0.808599,-0.485255 -1.111133,-0.803149 -0.0563,-0.05917 -0.109335,-0.120948 -0.159201,-0.185007 0.04993,0.06395 0.103471,0.12527 0.159743,0.184454 0.302534,0.317894 0.672929,0.585562 1.111133,0.80316 l 2.931565,-8.314287 v -5.45e-4 h 5.45e-4 l 0.216304,-0.614856 5.45e-4,-5.46e-4 h 5.45e-4 l 1.390571,-3.943873 z m -2.572519,8.848442 c -0.263311,0.746666 -0.3519,1.386471 -0.265701,1.919786 0.02581,0.125165 0.05811,0.245305 0.0972,0.360675 -0.03899,-0.115211 -0.07192,-0.235138 -0.09774,-0.360123 -0.08616,-0.533315 0.0021,-1.17313 0.265702,-1.919785 z m -0.80316,0.847078 c -0.01711,0.09072 -0.03123,0.180088 -0.0444,0.269005 0.0032,-0.01944 0.0043,-0.03803 0.0074,-0.05769 0.01126,-0.0699 0.02348,-0.140304 0.03729,-0.211363 z m -0.05822,1.332928 a 0.47487233,0.6744501 50 0 0 0.0043,0.01594 c 0.029,0.140473 0.06555,0.275911 0.109792,0.406248 -0.04419,-0.130188 -0.08137,-0.265403 -0.110344,-0.405696 a 0.47487233,0.6744501 50 0 1 -0.0043,-0.01647 z m 0.210258,0.670846 c 0.02613,0.05949 0.05546,0.117028 0.08509,0.174032 -0.0043,-0.0074 -0.0096,-0.01433 -0.01317,-0.02199 -0.02518,-0.04962 -0.04929,-0.100392 -0.07192,-0.152065 z"
       style="display:inline;fill:#ffffff;stroke-width:23.2749"
       id="path65" /><path
       d="m 44.179362,21.936046 -1.527814,4.332538 c 0.398558,0.154209 0.812169,0.290658 1.24179,0.408448 0.535154,0.167617 1.068512,0.319607 1.599183,0.456742 0.530681,0.137138 0.992416,0.297498 1.385067,0.480359 0.12678,0.05907 0.242044,0.122478 0.346408,0.191052 0.176062,0.115689 0.320348,0.245305 0.432595,0.388125 0.0272,0.03474 0.05227,0.07022 0.07574,0.106501 0.192783,0.274274 0.211257,0.631909 0.05546,1.073802 -0.145084,0.411423 -0.372329,0.754517 -0.682383,1.02879 -0.100073,0.08509 -0.204862,0.164683 -0.312371,0.238252 l -1.124858,3.191766 h -5.45e-4 l -0.206965,0.587412 c 0.119491,-0.02869 0.237719,-0.05949 0.355193,-0.09221 1.006056,-0.27589 1.92258,-0.664197 2.735014,-1.176458 a 0.47487233,0.6744501 50 0 1 0,5.84e-4 c -0.812434,0.512259 -1.728958,0.900576 -2.735014,1.176466 -0.117474,0.03272 -0.235702,0.06353 -0.355193,0.09221 l -0.436431,1.237944 h 3.473383 l 1.180854,-3.349323 c -0.347841,0.304509 -0.724526,0.585488 -1.127046,0.840492 a 0.47487233,0.6744501 50 0 0 0,-5.85e-4 c 0.40252,-0.255003 0.779205,-0.53598 1.127046,-0.840489 l 0.363979,-1.032075 5.46e-4,-5.85e-4 c 0.06724,-0.07659 0.132824,-0.154177 0.196532,-0.233311 0.515213,-0.639985 0.90437,-1.333438 1.167682,-2.080082 0.309788,-0.878459 0.382495,-1.602252 0.217386,-2.17122 -0.0064,-0.02316 -0.01392,-0.04589 -0.02146,-0.06863 -0.128521,-0.445703 -0.324215,-0.823334 -0.586857,-1.131996 -0.08754,-0.102728 -0.182584,-0.197935 -0.28492,-0.285471 -0.409723,-0.350444 -0.862258,-0.601889 -1.357075,-0.75427 -0.136659,-0.04823 -0.266222,-0.09221 -0.387031,-0.131763 -0.191572,-0.06257 -0.363288,-0.11402 -0.514948,-0.154262 -0.08424,-0.02231 -0.161954,-0.04112 -0.233863,-0.05652 -0.929577,-0.259039 -1.684752,-0.472495 -2.265628,-0.640111 -0.565643,-0.167616 -1.002169,-0.335253 -1.308771,-0.502869 -0.291346,-0.167616 -0.462903,-0.350339 -0.514948,-0.548423 -0.04101,-0.155866 -0.03102,-0.349499 0.03017,-0.580822 z"
       style="font-weight:bold;font-size:21.5154px;line-height:36.5;font-family:'Helvetica Neue';-inkscape-font-specification:'Helvetica Neue, Bold';letter-spacing:2.64583px;display:inline;fill:#ffffff;stroke-width:19.7541"
       id="path63" /><path
       d="m 45.050035,33.970769 1.040869,-2.952412 c -0.0011,3.89e-4 -0.0021,7.55e-4 -0.0032,9.43e-4 -0.373731,0.152382 -0.754123,0.259115 -1.141324,0.320062 -0.381816,0.04568 -0.732398,0.06863 -1.052396,0.06863 -0.472359,0 -0.911074,-0.05365 -1.315357,-0.160295 -0.398909,-0.121904 -0.725291,-0.296818 -0.979923,-0.52538 -0.234013,-0.243806 -0.383133,-0.556157 -0.446874,-0.937101 -0.06374,-0.380943 8.8e-4,-0.845857 0.194344,-1.394416 h -3.473946 c -0.369896,1.005694 -0.493573,1.874593 -0.370565,2.606004 0.123009,0.731409 0.42143,1.333225 0.894841,1.805594 0.488633,0.47237 1.114118,0.814899 1.876963,1.028239 0.772714,0.228561 1.608711,0.343116 2.507737,0.343116 0.80399,0 1.559961,-0.06778 2.268382,-0.203122 z"
       style="font-weight:bold;font-size:21.5154px;line-height:36.5;font-family:'Helvetica Neue';-inkscape-font-specification:'Helvetica Neue, Bold';letter-spacing:2.64583px;display:inline;fill:#ffffff;stroke-width:19.7541"
       id="path64" /><text
       xml:space="preserve"
       style="font-style:normal;font-variant:normal;font-weight:bold;font-stretch:normal;font-size:4.78369px;line-height:36.5;font-family:'Helvetica Neue';-inkscape-font-specification:'Helvetica Neue, Bold';font-variant-ligatures:normal;font-variant-caps:normal;font-variant-numeric:normal;font-variant-east-asian:normal;text-align:start;letter-spacing:0.687917px;writing-mode:lr-tb;direction:ltr;text-anchor:start;display:inline;fill:#ffffff;stroke:none;stroke-width:0.0222338;stroke-dasharray:none"
       x="17.71331"
       y="44.298679"
       id="text86"><tspan
         sodipodi:role="line"
         id="tspan86"
         style="font-style:normal;font-variant:normal;font-weight:bold;font-stretch:normal;font-size:4.78369px;font-family:'Helvetica Neue';-inkscape-font-specification:'Helvetica Neue, Bold';font-variant-ligatures:normal;font-variant-caps:normal;font-variant-numeric:normal;font-variant-east-asian:normal;letter-spacing:0.687917px;fill:#ffffff;stroke-width:0.0222338"
         x="17.71331"
         y="44.298679">SEBASTIÁN HUDÁK</tspan></text><text
       xml:space="preserve"
       style="font-size:2.46819px;line-height:36.5;font-family:Tahoma;-inkscape-font-specification:'Tahoma, Normal';text-align:start;letter-spacing:0.661458px;writing-mode:lr-tb;direction:ltr;text-anchor:start;display:inline;fill:#ffffff;stroke:none;stroke-width:0.0114717;stroke-dasharray:none"
       x="25.897781"
       y="47.769947"
       id="text86-6"><tspan
         sodipodi:role="line"
         id="tspan86-7"
         style="font-style:normal;font-variant:normal;font-weight:500;font-stretch:normal;font-size:2.46819px;font-family:'Helvetica Neue';-inkscape-font-specification:'Helvetica Neue Medium';font-variant-ligatures:normal;font-variant-caps:normal;font-variant-numeric:normal;font-variant-east-asian:normal;letter-spacing:0.661458px;fill:#ffffff;stroke-width:0.0114717"
         x="25.897781"
         y="47.769947"
         dx="0">AEROSPACE ENGINEER</tspan></text></g></svg>
