<?xml version="1.0" encoding="UTF-8" standalone="no"?>
<!-- Created with Inkscape (http://www.inkscape.org/) -->

<svg
   width="85mm"
   height="55mm"
   viewBox="0 0 85 55"
   version="1.1"
   id="svg1"
   xml:space="preserve"
   inkscape:version="1.4.2 (ebf0e940, 2025-05-08)"
   sodipodi:docname="business_back.svg"
   xmlns:inkscape="http://www.inkscape.org/namespaces/inkscape"
   xmlns:sodipodi="http://sodipodi.sourceforge.net/DTD/sodipodi-0.dtd"
   xmlns="http://www.w3.org/2000/svg"
   xmlns:svg="http://www.w3.org/2000/svg"><sodipodi:namedview
     id="namedview1"
     pagecolor="#ffffff"
     bordercolor="#000000"
     borderopacity="0.25"
     inkscape:showpageshadow="2"
     inkscape:pageopacity="0.0"
     inkscape:pagecheckerboard="false"
     inkscape:deskcolor="#d1d1d1"
     inkscape:document-units="mm"
     inkscape:zoom="0.88593549"
     inkscape:cx="330.15948"
     inkscape:cy="292.91072"
     inkscape:window-width="1920"
     inkscape:window-height="1080"
     inkscape:window-x="1440"
     inkscape:window-y="0"
     inkscape:window-maximized="0"
     inkscape:current-layer="g3"
     inkscape:export-bgcolor="#ffffff00" /><defs
     id="defs1" /><g
     inkscape:label="Vrstva 1"
     inkscape:groupmode="layer"
     id="layer1"
     transform="translate(-3,-3)"><rect
       style="fill:#1a1a1a;stroke-width:1.32292"
       id="rect1"
       width="85"
       height="55"
       x="3"
       y="3"
       rx="0"
       ry="5" /><g
       inkscape:label="QR Code: sebastian-hudak.github.io"
       transform="matrix(0.264583,0,0,0.264583,50.2586,37.694)"
       id="g3"><g
         style="fill:#ffffff;stroke:none"
         id="g2"
         transform="matrix(0.33675265,0,0,0.33675265,-166.60774,22.815708)"><path
           d="m 115.6,116 h -3.2 c -0.221,0 -0.4,-0.179 -0.4,-0.4 v -3.2 c 0,-0.221 -0.179,-0.4 -0.4,-0.4 h -7.2 c -0.221,0 -0.4,0.179 -0.4,0.4 v 3.2 c 0,0.221 -0.179,0.4 -0.4,0.4 h -3.2 c -0.221,0 -0.4,-0.179 -0.4,-0.4 v -7.2 c 0,-0.221 -0.1791,-0.4 -0.4,-0.4 h -3.2 c -0.2209,0 -0.4,0.179 -0.4,0.4 v 7.2 c 0,0.221 -0.1791,0.4 -0.4,0.4 h -7.2 c -0.2209,0 -0.4,-0.179 -0.4,-0.4 v -7.2 c 0,-0.221 0.1791,-0.4 0.4,-0.4 h 3.2 c 0.2209,0 0.4,-0.179 0.4,-0.4 V 104 h 7.6 c 0.2209,0 0.4,-0.179 0.4,-0.4 V 100 h 15.6 c 0.221,0 0.4,0.179 0.4,0.4 v 15.2 c 0,0.221 -0.179,0.4 -0.4,0.4 z m -32,0 h -3.2 c -0.2209,0 -0.4,-0.179 -0.4,-0.4 v -3.2 c 0,-0.221 0.1791,-0.4 0.4,-0.4 h 3.2 c 0.2209,0 0.4,0.179 0.4,0.4 v 3.2 c 0,0.221 -0.1791,0.4 -0.4,0.4 z m -16,0 h -3.2 c -0.2209,0 -0.4,-0.179 -0.4,-0.4 v -3.2 c 0,-0.221 -0.1791,-0.4 -0.4,-0.4 h -3.2 c -0.2209,0 -0.4,-0.179 -0.4,-0.4 v -3.2 c 0,-0.221 -0.1791,-0.4 -0.4,-0.4 h -3.2 c -0.2209,0 -0.4,0.179 -0.4,0.4 v 7.2 c 0,0.221 -0.1791,0.4 -0.4,0.4 h -7.2 c -0.2209,0 -0.4,-0.179 -0.4,-0.4 v -7.2 c 0,-0.221 0.1791,-0.4 0.4,-0.4 h 3.2 c 0.2209,0 0.4,-0.179 0.4,-0.4 v -3.2 C 52,104.179 51.8209,104 51.6,104 H 48.4 C 48.1791,104 48,103.821 48,103.6 V 96.4 C 48,96.1791 48.1791,96 48.4,96 h 3.2 c 0.2209,0 0.4,0.1791 0.4,0.4 v 3.2 c 0,0.2209 0.1791,0.4 0.4,0.4 h 3.2 c 0.2209,0 0.4,0.179 0.4,0.4 v 3.2 c 0,0.221 0.1791,0.4 0.4,0.4 h 3.2 c 0.2209,0 0.4,-0.179 0.4,-0.4 V 96.4 C 60,96.1791 59.8209,96 59.6,96 H 56.4 C 56.1791,96 56,95.8209 56,95.6 V 92.4 C 56,92.1791 55.8209,92 55.6,92 H 52.4 C 52.1791,92 52,91.8209 52,91.6 V 88.4 C 52,88.1791 51.8209,88 51.6,88 H 48.4 C 48.1791,88 48,87.8209 48,87.6 V 80.4 C 48,80.1791 47.8209,80 47.6,80 H 44 v -4 h 7.6 C 51.8209,76 52,75.8209 52,75.6 V 72 H 67.6 C 67.8209,72 68,71.8209 68,71.6 V 68 h 3.6 c 0.2209,0 0.4,0.1791 0.4,0.4 v 3.2 c 0,0.2209 0.1791,0.4 0.4,0.4 h 3.2 C 75.8209,72 76,71.8209 76,71.6 V 68.4 C 76,68.1791 76.1791,68 76.4,68 h 3.2 C 79.8209,68 80,67.8209 80,67.6 V 64.4 C 80,64.1791 79.8209,64 79.6,64 H 76.4 C 76.1791,64 76,63.8209 76,63.6 V 60.4 C 76,60.1791 75.8209,60 75.6,60 H 72.4 C 72.1791,60 72,59.8209 72,59.6 V 56.4 C 72,56.1791 71.8209,56 71.6,56 H 64 v -4 h 7.6 C 71.8209,52 72,51.8209 72,51.6 V 48.4 C 72,48.1791 71.8209,48 71.6,48 H 68.4 C 68.1791,48 68,47.8209 68,47.6 V 44 h 3.6 C 71.8209,44 72,43.8209 72,43.6 V 36.4 C 72,36.1791 72.1791,36 72.4,36 h 3.2 c 0.2209,0 0.4,0.1791 0.4,0.4 v 7.2 c 0,0.2209 0.1791,0.4 0.4,0.4 h 3.2 C 79.8209,44 80,43.8209 80,43.6 V 28.4 C 80,28.1791 80.1791,28 80.4,28 h 3.2 c 0.2209,0 0.4,0.1791 0.4,0.4 V 71.6 C 84,71.8209 83.8209,72 83.6,72 H 80.4 C 80.1791,72 80,72.1791 80,72.4 V 76 H 64.4 C 64.1791,76 64,76.1791 64,76.4 V 80 H 60.4 C 60.1791,80 60,79.8209 60,79.6 V 76.4 C 60,76.1791 59.8209,76 59.6,76 H 56.4 C 56.1791,76 56,76.1791 56,76.4 v 7.2 c 0,0.2209 0.1791,0.4 0.4,0.4 h 7.2 C 63.8209,84 64,83.8209 64,83.6 V 80 h 7.6 c 0.2209,0 0.4,0.1791 0.4,0.4 v 3.2 C 72,83.8209 71.8209,84 71.6,84 H 68.4 C 68.1791,84 68,84.1791 68,84.4 v 3.2 C 68,87.8209 67.8209,88 67.6,88 H 64.4 C 64.1791,88 64,88.1791 64,88.4 v 7.2 c 0,0.2209 0.1791,0.4 0.4,0.4 H 68 v 4 h -3.6 c -0.2209,0 -0.4,0.179 -0.4,0.4 v 7.2 c 0,0.221 0.1791,0.4 0.4,0.4 H 68 v 7.6 c 0,0.221 -0.1791,0.4 -0.4,0.4 z m -24,0 H 16.4 C 16.1791,116 16,115.821 16,115.6 V 88.4 C 16,88.1791 16.1791,88 16.4,88 h 27.2 c 0.2209,0 0.4,0.1791 0.4,0.4 v 27.2 c 0,0.221 -0.1791,0.4 -0.4,0.4 z M 40,111.6 V 92.4 C 40,92.1791 39.8209,92 39.6,92 H 20.4 C 20.1791,92 20,92.1791 20,92.4 v 19.2 c 0,0.221 0.1791,0.4 0.4,0.4 h 19.2 c 0.2209,0 0.4,-0.179 0.4,-0.4 z m 68,-4 v -3.2 c 0,-0.221 -0.179,-0.4 -0.4,-0.4 h -3.2 c -0.221,0 -0.4,0.179 -0.4,0.4 v 3.2 c 0,0.221 0.179,0.4 0.4,0.4 h 3.2 c 0.221,0 0.4,-0.179 0.4,-0.4 z M 71.6,108 H 68 v -8 h 8 v 3.6 c 0,0.221 -0.1791,0.4 -0.4,0.4 h -3.2 c -0.2209,0 -0.4,0.179 -0.4,0.4 v 3.2 c 0,0.221 -0.1791,0.4 -0.4,0.4 z m -36,0 H 24.4 C 24.1791,108 24,107.821 24,107.6 V 96.4 C 24,96.1791 24.1791,96 24.4,96 h 11.2 c 0.2209,0 0.4,0.1791 0.4,0.4 v 11.2 c 0,0.221 -0.1791,0.4 -0.4,0.4 z m 56,-4 H 80.4 c -0.2209,0 -0.4,-0.179 -0.4,-0.4 v -3.2 C 80,100.179 79.8209,100 79.6,100 H 76 V 96.4 C 76,96.1791 75.8209,96 75.6,96 H 68 V 92.4 C 68,92.1791 68.1791,92 68.4,92 h 3.2 C 71.8209,92 72,91.8209 72,91.6 V 88.4 C 72,88.1791 72.1791,88 72.4,88 h 3.2 c 0.2209,0 0.4,0.1791 0.4,0.4 v 3.2 c 0,0.2209 0.1791,0.4 0.4,0.4 h 3.2 C 79.8209,92 80,91.8209 80,91.6 V 84.4 C 80,84.1791 79.8209,84 79.6,84 H 76.4 C 76.1791,84 76,83.8209 76,83.6 V 80.4 C 76,80.1791 76.1791,80 76.4,80 h 3.2 C 79.8209,80 80,79.8209 80,79.6 V 76 h 3.6 c 0.2209,0 0.4,0.1791 0.4,0.4 v 3.2 c 0,0.2209 0.1791,0.4 0.4,0.4 h 3.2 C 87.8209,80 88,79.8209 88,79.6 V 76.4 C 88,76.1791 88.1791,76 88.4,76 h 3.2 c 0.2209,0 0.4,0.1791 0.4,0.4 v 3.2 c 0,0.2209 0.1791,0.4 0.4,0.4 h 3.2 C 95.8209,80 96,79.8209 96,79.6 V 76.4 C 96,76.1791 96.1791,76 96.4,76 h 7.2 c 0.221,0 0.4,-0.1791 0.4,-0.4 v -3.2 c 0,-0.2209 0.179,-0.4 0.4,-0.4 h 11.2 c 0.221,0 0.4,0.1791 0.4,0.4 v 3.2 c 0,0.2209 -0.179,0.4 -0.4,0.4 h -3.2 c -0.221,0 -0.4,0.1791 -0.4,0.4 v 3.2 c 0,0.2209 0.179,0.4 0.4,0.4 h 3.2 c 0.221,0 0.4,0.1791 0.4,0.4 v 3.2 c 0,0.2209 -0.179,0.4 -0.4,0.4 h -7.2 c -0.221,0 -0.4,0.1791 -0.4,0.4 v 3.2 c 0,0.2209 -0.179,0.4 -0.4,0.4 h -3.2 c -0.221,0 -0.4,-0.1791 -0.4,-0.4 v -7.2 c 0,-0.2209 -0.179,-0.4 -0.4,-0.4 h -3.2 c -0.221,0 -0.4,0.1791 -0.4,0.4 v 11.2 c 0,0.2209 0.179,0.4 0.4,0.4 h 3.2 c 0.221,0 0.4,0.1791 0.4,0.4 v 3.2 c 0,0.2209 -0.179,0.4 -0.4,0.4 h -3.2 c -0.221,0 -0.4,0.1791 -0.4,0.4 v 3.6 h -7.6 c -0.2209,0 -0.4,0.179 -0.4,0.4 v 3.6 z m 24,-8 h -7.2 c -0.221,0 -0.4,-0.1791 -0.4,-0.4 v -3.2 c 0,-0.2209 0.179,-0.4 0.4,-0.4 h 3.2 c 0.221,0 0.4,-0.1791 0.4,-0.4 v -3.2 c 0,-0.2209 0.179,-0.4 0.4,-0.4 h 3.2 c 0.221,0 0.4,0.1791 0.4,0.4 v 7.2 c 0,0.2209 -0.179,0.4 -0.4,0.4 z M 96,95.6 V 84.4 C 96,84.1791 95.8209,84 95.6,84 H 84.4 C 84.1791,84 84,84.1791 84,84.4 v 11.2 c 0,0.2209 0.1791,0.4 0.4,0.4 H 95.6 C 95.8209,96 96,95.8209 96,95.6 Z M 91.6,92 H 88.4 C 88.1791,92 88,91.8209 88,91.6 V 88.4 C 88,88.1791 88.1791,88 88.4,88 h 3.2 c 0.2209,0 0.4,0.1791 0.4,0.4 v 3.2 c 0,0.2209 -0.1791,0.4 -0.4,0.4 z m -48,-8 H 36.4 C 36.1791,84 36,83.8209 36,83.6 V 80.4 C 36,80.1791 36.1791,80 36.4,80 H 44 v 3.6 c 0,0.2209 -0.1791,0.4 -0.4,0.4 z m -12,0 H 24.4 C 24.1791,84 24,83.8209 24,83.6 V 76.4 C 24,76.1791 23.8209,76 23.6,76 H 20.4 C 20.1791,76 20,76.1791 20,76.4 v 7.2 C 20,83.8209 19.8209,84 19.6,84 H 16.4 C 16.1791,84 16,83.8209 16,83.6 V 64.4 C 16,64.1791 16.1791,64 16.4,64 h 7.2 c 0.2209,0 0.4,0.1791 0.4,0.4 v 3.2 c 0,0.2209 0.1791,0.4 0.4,0.4 h 3.2 c 0.2209,0 0.4,0.1791 0.4,0.4 v 3.2 c 0,0.2209 0.1791,0.4 0.4,0.4 h 3.2 c 0.2209,0 0.4,0.1791 0.4,0.4 v 11.2 c 0,0.2209 -0.1791,0.4 -0.4,0.4 z m 12,-8 H 40.4 C 40.1791,76 40,75.8209 40,75.6 V 72 h 3.6 c 0.2209,0 0.4,0.1791 0.4,0.4 V 76 Z m 56,-4 H 96.4 C 96.1791,72 96,71.8209 96,71.6 V 68 h 4 v 3.6 c 0,0.2209 -0.1791,0.4 -0.4,0.4 z m -48,0 H 48.4 C 48.1791,72 48,71.8209 48,71.6 V 68 h 4 v 4 z m -12,0 H 36.4 C 36.1791,72 36,71.8209 36,71.6 V 68.4 C 36,68.1791 36.1791,68 36.4,68 H 40 v 4 z m 76,-4 h -3.2 C 112.179,68 112,67.8209 112,67.6 V 56.4 c 0,-0.2209 0.179,-0.4 0.4,-0.4 h 3.2 c 0.221,0 0.4,0.1791 0.4,0.4 v 11.2 c 0,0.2209 -0.179,0.4 -0.4,0.4 z m -12,0 H 100 V 64.4 C 100,64.1791 99.8209,64 99.6,64 H 96.4 C 96.1791,64 96,64.1791 96,64.4 V 68 H 88.4 C 88.1791,68 88,67.8209 88,67.6 V 60.4 C 88,60.1791 88.1791,60 88.4,60 h 11.2 c 0.2209,0 0.4,-0.1791 0.4,-0.4 V 56 h 3.6 c 0.221,0 0.4,-0.1791 0.4,-0.4 v -3.2 c 0,-0.2209 0.179,-0.4 0.4,-0.4 h 3.2 c 0.221,0 0.4,0.1791 0.4,0.4 v 11.2 c 0,0.2209 -0.179,0.4 -0.4,0.4 h -3.2 c -0.221,0 -0.4,0.1791 -0.4,0.4 v 3.2 c 0,0.2209 -0.179,0.4 -0.4,0.4 z m -36,0 H 60.4 C 60.1791,68 60,67.8209 60,67.6 V 64.4 C 60,64.1791 59.8209,64 59.6,64 H 56.4 C 56.1791,64 56,64.1791 56,64.4 v 3.2 C 56,67.8209 55.8209,68 55.6,68 H 52 V 64.4 C 52,64.1791 51.8209,64 51.6,64 H 48.4 C 48.1791,64 48,64.1791 48,64.4 V 68 h -8 v -4 h 3.6 C 43.8209,64 44,63.8209 44,63.6 V 60 h 3.6 C 47.8209,60 48,59.8209 48,59.6 V 52.4 C 48,52.1791 48.1791,52 48.4,52 h 3.2 C 51.8209,52 52,51.8209 52,51.6 V 48 h 3.6 C 55.8209,48 56,47.8209 56,47.6 V 36 h 4 v 7.6 c 0,0.2209 0.1791,0.4 0.4,0.4 H 64 v 8 H 56.4 C 56.1791,52 56,52.1791 56,52.4 V 56 H 52.4 C 52.1791,56 52,56.1791 52,56.4 v 3.2 c 0,0.2209 0.1791,0.4 0.4,0.4 h 3.2 C 55.8209,60 56,59.8209 56,59.6 V 56 h 8 v 3.6 c 0,0.2209 0.1791,0.4 0.4,0.4 h 3.2 c 0.2209,0 0.4,0.1791 0.4,0.4 V 68 Z m -28,-4 H 32.4 C 32.1791,64 32,63.8209 32,63.6 V 60 h 3.6 C 35.8209,60 36,59.8209 36,59.6 V 56 h 7.6 c 0.2209,0 0.4,0.1791 0.4,0.4 V 60 H 40.4 C 40.1791,60 40,60.1791 40,60.4 V 64 Z m -8,-4 H 24.4 C 24.1791,60 24,59.8209 24,59.6 V 52 h 3.6 C 27.8209,52 28,51.8209 28,51.6 V 48.4 C 28,48.1791 28.1791,48 28.4,48 h 7.2 c 0.2209,0 0.4,0.1791 0.4,0.4 V 56 H 32.4 C 32.1791,56 32,56.1791 32,56.4 V 60 Z m 68,-4 H 96.4 C 96.1791,56 96,55.8209 96,55.6 V 52.4 C 96,52.1791 96.1791,52 96.4,52 h 3.2 c 0.2209,0 0.4,0.1791 0.4,0.4 V 56 Z m 16,-4 h -3.2 c -0.221,0 -0.4,-0.1791 -0.4,-0.4 v -3.2 c 0,-0.2209 0.179,-0.4 0.4,-0.4 h 3.2 c 0.221,0 0.4,0.1791 0.4,0.4 v 3.2 c 0,0.2209 -0.179,0.4 -0.4,0.4 z m -24,0 H 88.4 C 88.1791,52 88,51.8209 88,51.6 V 48.4 C 88,48.1791 88.1791,48 88.4,48 h 3.2 c 0.2209,0 0.4,0.1791 0.4,0.4 v 3.2 C 92,51.8209 91.8209,52 91.6,52 Z M 80,51.6 V 48.4 C 80,48.1791 79.8209,48 79.6,48 H 76.4 C 76.1791,48 76,48.1791 76,48.4 v 3.2 c 0,0.2209 0.1791,0.4 0.4,0.4 h 3.2 C 79.8209,52 80,51.8209 80,51.6 Z M 43.6,52 H 40.4 C 40.1791,52 40,51.8209 40,51.6 V 48.4 C 40,48.1791 40.1791,48 40.4,48 h 3.2 c 0.2209,0 0.4,0.1791 0.4,0.4 v 3.2 c 0,0.2209 -0.1791,0.4 -0.4,0.4 z m -20,0 H 16.4 C 16.1791,52 16,51.8209 16,51.6 V 48.4 C 16,48.1791 16.1791,48 16.4,48 h 7.2 c 0.2209,0 0.4,0.1791 0.4,0.4 V 52 Z m 28,-4 H 48.4 C 48.1791,48 48,47.8209 48,47.6 V 40.4 C 48,40.1791 48.1791,40 48.4,40 h 3.2 c 0.2209,0 0.4,0.1791 0.4,0.4 V 48 Z m 64,-4 H 88.4 C 88.1791,44 88,43.8209 88,43.6 V 16.4 C 88,16.1791 88.1791,16 88.4,16 h 27.2 c 0.221,0 0.4,0.1791 0.4,0.4 v 27.2 c 0,0.2209 -0.179,0.4 -0.4,0.4 z m -48,0 H 64 v -8 h 3.6 c 0.2209,0 0.4,0.1791 0.4,0.4 V 44 Z m -24,0 H 16.4 C 16.1791,44 16,43.8209 16,43.6 V 16.4 C 16,16.1791 16.1791,16 16.4,16 h 27.2 c 0.2209,0 0.4,0.1791 0.4,0.4 V 43.6 C 44,43.8209 43.8209,44 43.6,44 Z M 112,39.6 V 20.4 C 112,20.1791 111.821,20 111.6,20 H 92.4 C 92.1791,20 92,20.1791 92,20.4 v 19.2 c 0,0.2209 0.1791,0.4 0.4,0.4 h 19.2 c 0.221,0 0.4,-0.1791 0.4,-0.4 z m -72,0 V 20.4 C 40,20.1791 39.8209,20 39.6,20 H 20.4 C 20.1791,20 20,20.1791 20,20.4 v 19.2 c 0,0.2209 0.1791,0.4 0.4,0.4 H 39.6 C 39.8209,40 40,39.8209 40,39.6 Z M 107.6,36 H 96.4 C 96.1791,36 96,35.8209 96,35.6 V 24.4 C 96,24.1791 96.1791,24 96.4,24 h 11.2 c 0.221,0 0.4,0.1791 0.4,0.4 v 11.2 c 0,0.2209 -0.179,0.4 -0.4,0.4 z m -44,0 H 60 V 32.4 C 60,32.1791 60.1791,32 60.4,32 H 64 v 4 z m -8,0 H 52.4 C 52.1791,36 52,35.8209 52,35.6 V 32.4 C 52,32.1791 52.1791,32 52.4,32 h 3.2 c 0.2209,0 0.4,0.1791 0.4,0.4 V 36 Z m -20,0 H 24.4 C 24.1791,36 24,35.8209 24,35.6 V 24.4 C 24,24.1791 24.1791,24 24.4,24 h 11.2 c 0.2209,0 0.4,0.1791 0.4,0.4 v 11.2 c 0,0.2209 -0.1791,0.4 -0.4,0.4 z m 36,-4 H 64 V 24.4 C 64,24.1791 64.1791,24 64.4,24 h 3.2 C 67.8209,24 68,23.8209 68,23.6 V 20 h 3.6 C 71.8209,20 72,19.8209 72,19.6 V 16.4 C 72,16.1791 72.1791,16 72.4,16 h 3.2 c 0.2209,0 0.4,0.1791 0.4,0.4 V 27.6 C 76,27.8209 75.8209,28 75.6,28 H 72.4 C 72.1791,28 72,28.1791 72,28.4 v 3.2 c 0,0.2209 -0.1791,0.4 -0.4,0.4 z m -12,-4 H 56.4 C 56.1791,28 56,27.8209 56,27.6 V 24.4 C 56,24.1791 55.8209,24 55.6,24 H 52.4 C 52.1791,24 52,23.8209 52,23.6 V 20 h 8 v 7.6 c 0,0.2209 -0.1791,0.4 -0.4,0.4 z m 24,-4 H 80.4 C 80.1791,24 80,23.8209 80,23.6 V 20.4 C 80,20.1791 80.1791,20 80.4,20 h 3.2 c 0.2209,0 0.4,0.1791 0.4,0.4 v 3.2 c 0,0.2209 -0.1791,0.4 -0.4,0.4 z m -16,-4 H 60 V 16.4 C 60,16.1791 60.1791,16 60.4,16 h 7.2 c 0.2209,0 0.4,0.1791 0.4,0.4 V 20 Z m -16,0 H 48.4 C 48.1791,20 48,19.8209 48,19.6 V 16.4 C 48,16.1791 48.1791,16 48.4,16 h 3.2 c 0.2209,0 0.4,0.1791 0.4,0.4 V 20 Z"
           id="path2"
           style="fill:#ffffff" /></g><g
         id="g15"
         transform="matrix(0.57385326,0,0,0.57385326,-108.04712,-124.24581)"
         style="fill:#ffffff;stroke:#ffffff"><g
           id="text2-7"
           style="opacity:1;fill:#ffffff;stroke:#ffffff"
           transform="matrix(1.9073041,0,0,1.3885264,-67.243019,-37.600193)"><path
             style="font-size:121.104px;font-family:Tahoma;-inkscape-font-specification:'Tahoma, Normal';letter-spacing:14.8925px;baseline-shift:baseline;display:inline;overflow:visible;vector-effect:none;fill:#ffffff;stroke:#ffffff;enable-background:accumulate;stop-color:#000000;stop-opacity:1"
             d="M 149.40698,193.03865 H 137.69869 V 149.93083 H 97.19271 v 43.10782 H 85.484413 V 104.9899 H 97.19271 v 34.53356 h 40.50598 V 104.9899 h 11.70829 z"
             id="path13" /><path
             style="font-size:121.104px;font-family:Tahoma;-inkscape-font-specification:'Tahoma, Normal';letter-spacing:14.8925px;baseline-shift:baseline;display:inline;overflow:visible;vector-effect:none;fill:#ffffff;stroke:#ffffff;enable-background:accumulate;stop-color:#000000;stop-opacity:1"
             d="m 83.271484,102.77539 v 92.47656 H 99.40625 v -43.10742 h 36.07812 v 43.10742 h 16.13672 v -92.47656 h -16.13672 v 34.53516 H 99.40625 v -34.53516 z m 4.427735,4.42774 h 7.279297 v 34.53515 h 44.933594 v -34.53515 h 7.28125 v 83.62109 h -7.28125 V 147.7168 H 94.978516 v 43.10742 h -7.279297 z"
             id="path14" /></g><path
           style="fill:#ffffff;fill-opacity:1;stroke:#ffffff;stroke-width:20.5985;stroke-dasharray:none"
           d="m 91.460685,78.86076 c 0,0 70.205445,25.63019 69.610325,1.843054 -0.22625,-9.043353 63.24886,1.168868 63.24886,1.168868"
           id="path15" /><path
           style="fill:#ffffff;fill-opacity:1;stroke:#ffffff;stroke-width:20.5985;stroke-dasharray:none"
           d="m 91.460687,259.39941 c 0,0 70.205423,-25.63017 69.610303,-1.84305 -0.22625,9.04336 63.24887,-1.16886 63.24887,-1.16886"
           id="path15-4" /></g></g></g></svg>
