<svg xmlns="http://www.w3.org/2000/svg" style="color:#000" viewBox="0 0 210 210"><style>@media (prefers-color-scheme:dark){:root{color:#fff}}</style><path fill="currentColor" d="M136.575 99.936c4.307 1.41 8.726 2.704 12.572 5.18 4.188 2.568 7.944 6.004 10.287 10.37.39.518.797 2.218 1.036.84 2.831-8.041 5.694-16.106 8.504-24.134h-29.668zM107 46.077 94.89 80.413c3.314-7.406 11.058-12.034 18.819-13.472 6.905-1.18 14.23-.982 20.861 1.403 3.935 1.416 7.063 4.926 7.455 9.169.534 3.284-.105 6.623-1.002 9.786h29.687c2.942-8.112 4.378-17.261 1.183-25.526-3.224-9.077-12.205-14.676-21.212-16.807-14.266-3.884-29.588-3.163-43.68 1.111M85.639 9.006 41.542 134.062H71.22l44.102-125.06zm8.077 74.742-13.054 37.02c10.903 4.26 22.504 6.353 33.482 10.361 5.429 1.98 12.1 6.147 11.216 12.84-.787 5.939-4.705 11.044-9.405 14.42l-15.02 42.609h29.678c4.402-12.482 8.798-24.967 13.205-37.446 7.765-8.991 13.542-20.288 14.244-32.292.135-9.68-5.922-18.847-14.617-22.975-9.676-4.454-20.283-6.258-30.403-9.443-6.401-2.103-13.782-3.25-18.653-8.282-1.55-1.919-1.258-4.591-.673-6.812"/><path fill="currentColor" d="M101.155 186.579c2.944-8.394 5.985-16.884 8.867-25.218-7.947 3.295-16.803 3.875-25.281 2.887-5.641-.789-11.955-2.837-15.018-8.015-3.126-5.3-2.252-11.816-.215-17.331H39.825c-3.415 9.121-5.23 19.549-1.351 28.83 3.52 9.29 12.604 15.164 21.869 17.65 13.203 3.86 27.368 3.58 40.813 1.197z"/></svg>